HIERARCHY
ROOT Hips
{
	OFFSET 0.00 0.00 0.00
	CHANNELS 6 Xposition Yposition Zposition Xrotation Yrotation Zrotation
	JOINT LeftUpLeg
	{
		OFFSET 3.25772 0.00000 0.00000
		CHANNELS 3 Xrotation Yrotation Zrotation
		JOINT LeftLeg
		{
			OFFSET 0.00000 -15.35355 0.00000
			CHANNELS 3 Xrotation Yrotation Zrotation
			JOINT LeftFoot
			{
				OFFSET 0.00000 -16.48949 0.00000
				CHANNELS 3 Xrotation Yrotation Zrotation
				JOINT LeftToeBase
				{
					OFFSET 0.00000 -1.72224 6.42750
					CHANNELS 3 Xrotation Yrotation Zrotation
					End Site
					{
						OFFSET 0.00000 0.00000 2.95275
					}
				}
			}
		}
	}
	JOINT RightUpLeg
	{
		OFFSET -3.25772 0.00000 0.00000
		CHANNELS 3 Xrotation Yrotation Zrotation
		JOINT RightLeg
		{
			OFFSET 0.00000 -15.35355 0.00000
			CHANNELS 3 Xrotation Yrotation Zrotation
			JOINT RightFoot
			{
				OFFSET 0.00000 -16.48949 0.00000
				CHANNELS 3 Xrotation Yrotation Zrotation
				JOINT RightToeBase
				{
					OFFSET 0.00000 -1.72224 6.42750
					CHANNELS 3 Xrotation Yrotation Zrotation
					End Site
					{
						OFFSET 0.00000 0.00000 2.95275
					}
				}
			}
		}
	}
	JOINT Spine
	{
		OFFSET 0.00000 0.03937 0.00000
		CHANNELS 3 Xrotation Yrotation Zrotation
		JOINT Spine1
		{
			OFFSET 0.00000 10.14986 0.00000
			CHANNELS 3 Xrotation Yrotation Zrotation
			JOINT Neck
			{
				OFFSET 0.00000 9.84250 0.00000
				CHANNELS 3 Xrotation Yrotation Zrotation
				JOINT Head
				{
					OFFSET 0.00000 4.54023 0.00000
					CHANNELS 3 Xrotation Yrotation Zrotation
					End Site
					{
						OFFSET 0.00000 4.52755 0.00000
					}
				}
			}
			JOINT LeftShoulder
			{
				OFFSET 0.00000 9.84250 0.00000
				CHANNELS 3 Xrotation Yrotation Zrotation
				JOINT LeftArm
				{
					OFFSET 7.21510 -0.00003 0.00000
					CHANNELS 3 Xrotation Yrotation Zrotation
					JOINT LeftForeArm
					{
						OFFSET 10.66411 -0.00004 0.00000
						CHANNELS 3 Xrotation Yrotation Zrotation
						JOINT LeftHand
						{
							OFFSET 8.93656 -0.00003 0.00000
							CHANNELS 3 Xrotation Yrotation Zrotation
							JOINT L_Wrist_End
							{
								OFFSET 3.93700 -0.00001 0.00000
								CHANNELS 3 Xrotation Yrotation Zrotation
							}
						}
					}
				}
			}
			JOINT RightShoulder
			{
				OFFSET 0.00000 9.84250 0.00000
				CHANNELS 3 Xrotation Yrotation Zrotation
				JOINT RightArm
				{
					OFFSET -7.21510 -0.00003 0.00000
					CHANNELS 3 Xrotation Yrotation Zrotation
					JOINT RightForeArm
					{
						OFFSET -10.66411 -0.00004 0.00000
						CHANNELS 3 Xrotation Yrotation Zrotation
						JOINT RightHand
						{
							OFFSET -8.93656 -0.00003 0.00000
							CHANNELS 3 Xrotation Yrotation Zrotation
							JOINT R_Wrist_End
							{
								OFFSET -5.41338 -0.00002 0.00000
								CHANNELS 3 Xrotation Yrotation Zrotation
							}
						}
					}
				}
			}
		}
	}
}
MOTION
Frames: 19
Frame Time: 0.008333
 0.8305 33.3318 56.9255 2.2220 -0.3676 -4.4171 0.2777 12.9826 19.2913 46.1617 -0.0000 0.0000 6.4374 -12.7155 0.1905 -42.6860 0.0000 -0.0000 -4.2646 0.3680 6.0302 2.8350 -0.0000 0.0000 1.6420 -9.4447 0.2999 -29.2894 0.0000 -0.0000 -20.3902 -7.9393 -5.2703 28.8405 2.9196 10.3211 -6.6897 -0.5220 9.7141 13.6824 -21.0012 -17.8255 17.5822 4.7664 8.3031 -19.6594 -63.7075 -79.1030 -0.0001 -21.9490 -0.0000 2.2201 4.7841 14.8247 -0.0000 0.0000 -0.0000 16.4574 -1.2395 -2.0556 -8.1753 38.1408 66.7718 -0.0001 23.1054 0.0000 -14.9315 -16.3032 -14.6317 -0.0000 -0.0000 0.0000
 0.7881 33.3427 57.1292 2.0688 -0.4625 -4.3392 -0.3833 12.5445 19.3522 47.8643 -0.0000 0.0000 6.8124 -12.4597 0.2667 -41.3493 0.0000 0.0000 -3.9304 -0.9562 6.0410 3.4431 -0.0000 0.0000 1.1202 -8.1401 0.0897 -29.3349 0.0000 -0.0000 -20.3661 -7.7362 -5.1770 28.8696 3.1279 10.2949 -6.7018 -0.4967 9.7110 13.3988 -21.1222 -17.9921 17.6296 4.9724 8.2607 -18.9942 -63.4848 -78.3318 -0.0001 -22.2207 -0.0000 2.4288 4.9019 15.2058 -0.0000 0.0000 -0.0000 15.9326 -1.0171 -2.2530 -7.8698 38.5342 66.3171 -0.0001 23.3249 0.0000 -15.6029 -16.2739 -14.6870 -0.0000 -0.0000 0.0000
 0.7435 33.3521 57.3490 1.8567 -0.6199 -4.2361 -0.9319 12.3688 19.4035 49.3469 -0.0000 0.0000 6.9202 -12.1124 0.1317 -40.1144 0.0000 -0.0000 -3.4339 -1.0177 6.0348 3.6460 -0.0000 0.0000 0.7034 -7.9854 -0.0017 -29.2483 0.0000 -0.0000 -20.2236 -7.4661 -5.0085 28.6834 3.3346 10.1837 -6.5551 -0.2700 10.0164 12.9987 -21.5195 -18.5125 17.6632 5.0734 8.1969 -18.1604 -62.9020 -77.5970 -0.0001 -22.4578 -0.0000 2.2054 4.5171 15.3251 -0.0000 0.0000 -0.0000 16.3613 -1.0672 -2.1979 -8.1356 39.7028 65.4895 -0.0001 23.4698 0.0000 -15.6749 -16.3584 -15.0529 -0.0000 0.0000 -0.0000
 0.6927 33.3644 57.5520 1.6732 -0.5743 -4.1324 -1.6393 12.0632 19.5204 50.8737 -0.0000 0.0000 6.9069 -12.1161 0.1990 -39.7166 0.0000 -0.0000 -2.8832 -0.5082 6.0323 3.5457 -0.0000 0.0000 0.4814 -8.4709 -0.1761 -29.1543 0.0000 -0.0000 -20.2155 -7.3214 -4.9565 28.7433 3.4361 10.1053 -6.6296 -0.5033 9.7539 13.1311 -21.4460 -18.3441 17.5684 5.0852 8.3483 -17.4536 -62.0141 -77.0751 -0.0001 -22.9447 -0.0000 2.3293 4.7203 15.5257 -0.0000 0.0000 -0.0000 16.1649 -0.7760 -2.3089 -8.0745 40.0593 64.9853 -0.0001 23.8479 0.0000 -15.3414 -16.5350 -15.4855 -0.0000 0.0000 -0.0000
 0.6440 33.3716 57.7344 1.4686 -0.7954 -4.0595 -2.1934 11.8210 19.5352 52.2050 -0.0000 0.0000 6.6266 -11.9045 0.3038 -39.8470 0.0000 -0.0000 -2.4578 0.2771 6.0497 3.5723 -0.0000 -0.0000 0.2564 -8.9429 -0.3553 -29.1737 0.0000 -0.0000 -20.0073 -7.0568 -4.7589 28.5993 3.6310 9.9915 -6.5724 -0.4392 9.7291 12.9091 -21.5938 -18.5351 17.4992 5.2324 8.3306 -16.8682 -61.1523 -76.6393 -0.0001 -23.2076 -0.0000 2.2423 4.6779 15.6883 -0.0000 0.0000 -0.0000 15.8839 -0.6511 -2.4744 -7.8498 40.8694 64.4098 -0.0001 24.0654 0.0000 -15.7444 -16.2171 -15.4696 -0.0000 -0.0000 0.0000
 0.6064 33.3833 57.9388 1.2957 -0.6747 -3.9512 -2.8409 11.4476 19.5140 53.5032 -0.0000 0.0000 6.2149 -11.6401 0.7157 -39.6238 0.0000 -0.0000 -1.8767 0.2386 6.0230 3.4894 -0.0000 0.0000 0.0634 -8.9903 -0.3562 -29.1861 0.0000 -0.0000 -19.9028 -6.8517 -4.6245 28.5767 3.7386 9.8453 -6.8147 -0.8408 9.5516 13.1215 -21.5642 -18.4823 17.5865 5.3164 8.2367 -16.0550 -60.4137 -75.7058 -0.0001 -23.7674 -0.0000 2.4399 4.6949 16.2235 -0.0000 0.0000 -0.0000 15.8361 -0.8431 -2.3940 -8.0041 41.6742 63.8800 -0.0001 24.2493 0.0000 -15.6676 -16.2361 -15.6688 -0.0000 0.0000 -0.0000
 0.5794 33.3971 58.1337 1.0639 -0.9775 -3.7246 -3.2816 11.4942 19.2954 54.4701 -0.0000 0.0000 5.6456 -11.3672 0.5997 -39.5044 0.0000 0.0000 -1.4881 0.9606 5.8576 3.6943 -0.0000 0.0000 -0.2388 -9.3404 -0.5671 -29.2053 0.0000 -0.0000 -19.8000 -6.5668 -4.5125 28.5549 3.8739 9.5983 -6.5951 -0.4395 9.8439 12.6723 -21.8819 -18.9269 17.5911 5.5544 8.2203 -15.7409 -59.4760 -75.4656 -0.0001 -24.1080 -0.0000 1.4539 4.6294 16.3888 -0.0000 -0.0000 0.0000 15.7964 -0.5123 -2.5151 -7.8696 42.5852 63.1419 -0.0001 24.2205 0.0000 -16.0060 -15.4890 -16.1506 -0.0000 -0.0000 0.0000
 0.5573 33.4031 58.3345 0.7524 -1.0366 -3.4762 -3.7314 11.1812 19.0386 55.5639 -0.0000 0.0000 5.3478 -11.0666 0.4499 -39.8057 0.0000 0.0000 -0.7460 0.8368 5.6517 3.5818 -0.0000 0.0000 -0.5191 -9.0977 -0.6616 -29.1288 0.0000 -0.0000 -19.5598 -6.2118 -4.3165 28.3747 3.9817 9.2261 -6.3380 0.0087 10.4222 12.0495 -22.5031 -19.7325 17.7631 5.5721 8.3581 -15.5664 -58.3936 -75.2053 -0.0001 -24.4435 -0.0000 1.8704 4.4292 16.4667 -0.0000 0.0000 -0.0000 15.7793 -0.5449 -2.5014 -8.0003 43.1704 62.7843 -0.0001 24.3766 0.0000 -15.9446 -15.3150 -16.6177 -0.0000 -0.0000 0.0000
 0.5277 33.4183 58.4711 0.5577 -1.5470 -3.3380 -4.3969 11.5495 18.9907 56.4470 -0.0000 0.0000 4.7864 -10.9136 0.5462 -39.5960 0.0000 0.0000 -0.5433 1.0701 5.5571 3.9180 -0.0000 0.0000 -0.6946 -8.7822 -0.7605 -29.1906 0.0000 0.0000 -19.3002 -5.8926 -4.1245 28.3962 4.2431 9.0919 -6.6702 -0.2635 9.9744 12.4220 -22.1459 -19.4934 17.6571 6.0628 8.0625 -15.3563 -57.7765 -74.8137 -0.0001 -24.6683 -0.0000 1.1283 4.4777 16.4716 -0.0000 0.0000 -0.0000 15.0418 -0.2688 -2.7870 -7.6496 43.7365 62.3850 -0.0001 24.7620 0.0000 -15.7005 -15.5890 -16.7057 -0.0000 -0.0000 0.0000
 0.4971 33.4272 58.6613 0.3661 -1.3222 -3.1635 -4.9786 11.0561 18.7629 57.2635 -0.0000 0.0000 4.5251 -10.4648 0.6414 -39.8952 0.0000 0.0000 0.0844 0.6072 5.4268 3.8501 -0.0000 0.0000 -0.9613 -8.5307 -0.9475 -29.1513 0.0000 -0.0000 -19.0869 -5.7544 -4.0522 28.2018 4.2200 8.8688 -6.5532 -0.2893 10.0078 12.3056 -22.3444 -19.5630 17.7373 6.0163 8.1278 -14.9583 -56.5595 -74.5140 -0.0001 -25.0725 -0.0000 1.5786 4.3423 16.9389 -0.0000 -0.0000 0.0000 15.1044 -0.3674 -2.7270 -7.9199 44.5911 61.9440 -0.0001 24.7009 0.0000 -15.3519 -15.3229 -16.8410 -0.0000 -0.0000 0.0000
 0.4612 33.4427 58.8357 0.2352 -1.5893 -3.0022 -5.4942 11.2121 18.5968 57.6996 -0.0000 0.0000 3.9485 -10.1003 0.2181 -39.5433 0.0000 -0.0000 0.4332 0.4451 5.3312 4.0241 -0.0000 0.0000 -1.1751 -8.1792 -1.0410 -29.1636 0.0000 -0.0000 -19.0918 -5.4268 -3.9391 28.2035 4.4245 8.6639 -6.3123 -0.2518 9.9016 12.0513 -22.5008 -19.4605 17.7763 6.2924 8.0799 -14.9994 -55.7774 -74.4256 -0.0001 -25.2041 -0.0000 0.3099 3.8403 16.9638 -0.0000 -0.0000 0.0000 14.8731 -0.0234 -2.9638 -7.8084 45.1295 61.6395 -0.0001 25.0032 0.0000 -14.6697 -15.8391 -17.0422 -0.0000 -0.0000 0.0000
 0.4606 33.4632 59.0082 -0.0035 -1.6912 -2.6387 -5.9704 11.1298 18.0948 58.2513 -0.0000 0.0000 3.7162 -9.4307 0.0542 -39.4747 0.0000 -0.0000 0.8747 0.3561 4.9677 4.2203 -0.0000 0.0000 -1.3703 -7.8117 -0.9745 -29.3471 0.0000 -0.0000 -18.8823 -5.1134 -3.7739 28.2157 4.4078 8.1816 -6.5042 -0.3238 10.0026 12.2342 -22.5240 -19.6063 17.5347 6.3907 8.0081 -14.4764 -54.6770 -74.0829 -0.0001 -25.5639 -0.0000 0.7258 3.7168 17.5197 -0.0000 0.0000 -0.0000 14.7862 0.0380 -2.9427 -8.2665 45.5827 61.4580 -0.0001 25.0296 0.0000 -14.3556 -15.7019 -17.0352 -0.0000 0.0000 -0.0000
 0.4374 33.4764 59.1743 -0.2049 -1.6823 -2.3318 -6.5351 11.1376 17.7536 58.6636 -0.0000 0.0000 3.4261 -8.8691 0.0397 -39.4690 0.0000 0.0000 1.4348 -0.0508 4.7018 4.1757 -0.0000 0.0000 -1.5990 -7.4652 -1.0801 -29.2299 0.0000 -0.0000 -18.6868 -4.7499 -3.6692 28.1749 4.4627 7.7074 -6.3928 -0.2116 10.2692 11.9459 -22.8140 -19.7295 17.5122 6.5431 8.3412 -14.8064 -54.1332 -74.2805 -0.0001 -25.4047 -0.0000 -0.0090 3.4076 17.3703 -0.0000 0.0000 -0.0000 14.5268 -0.0217 -2.7299 -8.2524 46.3224 60.9807 -0.0001 25.1623 0.0000 -14.6686 -15.8367 -17.2938 -0.0000 0.0000 -0.0000
 0.4195 33.4917 59.3287 -0.3277 -1.8688 -2.1753 -7.2055 11.3641 17.6250 58.9491 -0.0000 0.0000 3.2907 -8.4318 -0.0109 -39.6220 0.0000 -0.0000 1.6694 0.6189 4.5918 4.3757 -0.0000 0.0000 -1.8351 -7.9900 -1.2998 -29.1779 0.0000 -0.0000 -18.5752 -4.4499 -3.4776 28.1396 4.6046 7.4780 -6.2525 -0.2748 9.9258 11.8509 -22.8185 -19.5192 17.7901 6.7220 8.0871 -14.7430 -53.4551 -73.7540 -0.0001 -25.6097 -0.0000 -0.6514 2.8082 17.4399 -0.0000 0.0000 -0.0000 14.0822 0.1713 -2.9809 -8.2228 46.7104 60.9410 -0.0001 25.4037 0.0000 -14.6272 -15.9210 -17.7517 -0.0000 -0.0000 0.0000
 0.4029 33.5125 59.5113 -0.4889 -1.9691 -1.8585 -7.6735 11.5465 17.1919 59.0452 -0.0000 0.0000 2.7320 -7.5037 -0.0798 -39.8806 0.0000 -0.0000 2.1361 1.2528 4.2969 4.3078 -0.0000 0.0000 -1.9640 -8.4504 -1.4098 -29.2109 0.0000 -0.0000 -18.6597 -4.1441 -3.4464 28.3368 4.6482 7.0799 -5.7986 0.1846 10.2413 11.0694 -23.3065 -19.7624 17.7298 6.7613 8.3017 -14.9763 -52.4407 -74.0786 -0.0001 -25.6997 -0.0000 -1.1161 2.7605 17.8722 -0.0000 0.0000 -0.0000 14.1414 0.3707 -3.0598 -8.4768 47.5857 60.6316 -0.0001 25.3902 0.0000 -14.8791 -15.6991 -18.3836 -0.0000 -0.0000 0.0000
 0.3729 33.5240 59.6588 -0.5387 -2.0204 -1.6873 -8.3407 11.6601 16.9648 59.0692 -0.0000 0.0000 2.2131 -6.7721 -0.2822 -39.5367 0.0000 -0.0000 2.2411 1.7202 4.2129 4.6544 -0.0000 0.0000 -2.3035 -8.9418 -1.6820 -29.1348 0.0000 -0.0000 -18.4346 -3.8950 -3.3451 28.1822 4.7171 6.8062 -6.4271 -0.4170 10.1575 11.8654 -23.0575 -19.7540 17.5852 6.9898 8.1716 -14.6351 -51.6294 -73.7660 -0.0001 -26.0981 -0.0000 -0.7763 3.2597 17.7395 -0.0000 0.0000 -0.0000 13.6009 0.4040 -3.0033 -8.3310 47.8344 60.4477 -0.0001 25.7954 0.0000 -14.5974 -15.7025 -18.1942 -0.0000 0.0000 -0.0000
 0.3747 33.5371 59.7935 -0.5903 -2.1331 -1.4210 -9.0518 11.8725 16.5756 59.1013 -0.0000 0.0000 1.7208 -5.9577 -0.1992 -39.5550 0.0000 0.0000 2.3302 1.6422 3.9552 5.0456 -0.0000 0.0000 -2.5768 -8.8480 -1.7922 -29.2302 0.0000 -0.0000 -18.3344 -3.5831 -3.1349 28.1945 4.6988 6.3779 -6.4855 -0.5430 9.8637 12.0126 -22.9383 -19.4846 17.7127 7.0589 8.1842 -14.8297 -50.8763 -73.6909 -0.0001 -26.1269 -0.0000 -1.3998 2.9520 17.7913 -0.0000 0.0000 -0.0000 13.5557 0.5394 -3.1120 -8.9460 48.1571 60.5182 -0.0001 26.0169 0.0000 -14.6082 -15.6705 -18.1524 -0.0000 -0.0000 0.0000
 0.3514 33.5500 59.9587 -0.6999 -2.2930 -1.2092 -9.6260 12.1458 16.2746 59.0197 -0.0000 0.0000 1.2062 -5.2086 0.1558 -39.9039 0.0000 0.0000 2.6237 1.6290 3.7911 5.2339 -0.0000 0.0000 -2.8708 -8.8436 -1.7561 -29.1064 0.0000 -0.0000 -18.3723 -3.1919 -2.9525 28.3461 4.7609 5.9252 -5.9375 0.2447 10.4984 10.7938 -23.6997 -20.2218 17.5605 7.0962 8.4946 -14.9298 -50.3767 -73.8933 -0.0001 -25.9957 -0.0000 -1.6286 2.6202 17.9694 -0.0000 -0.0000 0.0000 13.5385 0.6869 -3.1203 -9.4013 48.3921 60.5061 -0.0001 26.4228 0.0000 -14.6695 -15.8144 -18.1949 -0.0000 0.0000 -0.0000
 0.3279 33.5640 60.1007 -0.7640 -2.3048 -1.0477 -10.3553 12.4007 16.1319 58.8070 -0.0000 0.0000 0.7628 -4.7474 0.2447 -40.0525 0.0000 0.0000 2.8790 1.7568 3.6781 5.3401 -0.0000 -0.0000 -3.0529 -9.0139 -1.9001 -29.0843 0.0000 -0.0000 -18.2455 -2.9741 -2.8386 28.3510 4.7647 5.6325 -6.2897 -0.3225 10.0361 11.4950 -23.3475 -19.6560 17.4132 7.1446 8.4413 -14.6675 -49.3029 -73.7453 -0.0001 -26.4532 -0.0000 -1.5849 3.0478 17.8604 -0.0000 -0.0000 0.0000 13.1695 0.8536 -3.1443 -9.3952 48.8251 60.3581 -0.0001 26.7679 0.0000 -14.5213 -15.6951 -18.5324 -0.0000 0.0000 -0.0000
